# xmcd
#
# Track frame offsets:
#	150
#	25832
#	42875
#	62347
#	75185
#	91867
#	108047
#	124532
#	139252
#	159270
#	175727
#	190802
#	208162
#	224592
#	240625
#
# Disc length: 3401 seconds
#
# Revision: 0
# Processed by: cddbd v1.5.1PL0 Copyright (c) Steve Scherf et al.
# Submitted via: dBpowerAMP V4.0
#
DISCID=b90d470f
DTITLE=Various Artist - Butterfly Kisses - Todays country love songs
DYEAR=1900
DGENRE=
TTITLE0=B Carlisel - Butterfly Kisses
TTITLE1=S.Smith - Its Your Love
TTITLE2=D Warren - How Do I Live
TTITLE3=S.Smith - Go Away
TTITLE4=J Brooks - You Light up my Life
TTITLE5=S Swain - Love Gets Me every Time
TTITLE6=M D Sanders - The Day that she left Tulsa (in a Chevy)
TTITLE7=J Brickman - Valentine
TTITLE8=A Cochran - What if I said
TTITLE9=S Twain - Dont be Stupid (You know i love you)
TTITLE10=P Vassar - Bye Bye
TTITLE11=C Black - Nothin' but the tailights
TTITLE12=S Twain - Your still the one
TTITLE13=D Kees - If i never stop loving you
TTITLE14=R Sharp - Then What
EXTD=
EXTT0=
EXTT1=
EXTT2=
EXTT3=
EXTT4=
EXTT5=
EXTT6=
EXTT7=
EXTT8=
EXTT9=
EXTT10=
EXTT11=
EXTT12=
EXTT13=
EXTT14=
PLAYORDER=
